<?xml version="1.0" encoding="utf-8" ?>
<svg xmlns="http://www.w3.org/2000/svg" xmlns:xlink="http://www.w3.org/1999/xlink" width="64" height="64" viewBox="120 200 780 620">
  <path fill="#EB5228" d="M493.773 187.836C494.656 187.998 495.487 188.085 496.304 188.42C504.544 191.608 509.612 190.869 511.197 200.254C524.146 206.084 538.502 211.246 551.766 216.499C590.341 231.778 629.453 244.78 668.55 258.444C669.487 257.603 669.21 257.91 669.87 256.843C671.784 256.813 679.889 259.964 682.075 260.725C681.365 298.891 681.876 339.013 682.025 377.251L558.954 402.864C540.418 406.851 514.295 411.839 496.484 417.199L493.71 417.364C489.673 415.722 467.112 412.086 461.552 411.026C432.833 405.407 404.065 400.047 375.25 394.946C374.828 376.127 375.237 355.884 375.273 336.938L375.319 223.16C386.604 224.635 386.777 226.384 398.042 223.092C405.54 220.384 414.973 217.696 422.673 215.461C434.901 211.545 447.268 207.943 459.506 204.089C465.277 202.272 473.718 200.049 479.063 197.73L480.606 192.231C483.92 190.572 489.797 189.226 493.773 187.836Z"/>
  <path fill="#EB5228" d="M493.773 187.836C494.656 187.998 495.487 188.085 496.304 188.42C496.811 197.288 496.519 207.893 496.506 216.9L496.469 263.267L496.484 417.199L493.71 417.364C489.673 415.722 467.112 412.086 461.552 411.026C432.833 405.407 404.065 400.047 375.25 394.946C374.828 376.127 375.237 355.884 375.273 336.938L375.319 223.16C386.604 224.635 386.777 226.384 398.042 223.092C405.54 220.384 414.973 217.696 422.673 215.461C434.901 211.545 447.268 207.943 459.506 204.089C465.277 202.272 473.718 200.049 479.063 197.73L480.606 192.231C483.92 190.572 489.797 189.226 493.773 187.836Z"/>
  <path fill="#FEFEFE" d="M493.773 187.836C494.656 187.998 495.487 188.085 496.304 188.42C496.811 197.288 496.519 207.893 496.506 216.9L496.469 263.267L496.484 417.199L493.71 417.364C492.942 408.499 493.514 388.218 493.515 378.381L493.543 300.974L493.566 226.026C493.56 215.284 492.886 197.878 493.773 187.836Z"/>
  <path fill="#FEFEFE" d="M422.43 218.293L422.796 222.94C424.744 222.705 435.685 219.413 437.292 218.485C437.678 215.949 436.982 214.852 438.016 213.593C440.158 213.029 439.347 212.794 440.836 213.522C441.654 215.936 441.187 215.962 442.83 216.845C445.133 216.656 459.076 212.21 460.446 211.011C460.475 208.935 460.034 207.389 461.157 206.289C463.418 205.875 462.443 205.689 464.279 206.364C464.659 207.805 464.655 207.994 464.737 209.495C467.175 210.444 481.869 204.313 487.1 203.522C487.64 214.546 487.443 226.923 487.428 238.023L487.339 291.249C487.307 329.282 488.026 369.624 487.072 407.455C483.44 406.951 465.414 402.92 463.781 404.144C463.615 406.278 463.995 406.325 462.858 407.48C461.367 407.542 461.387 407.66 460.122 406.933C459.738 405.36 459.834 404.869 459.912 403.29C458.544 401.693 441.704 398.569 440.001 399.163C439.233 400.312 439.294 400.924 439.103 402.311C437.624 403.129 438.416 402.827 436.222 402.451L435.512 401.741C435.566 400.372 435.711 399.452 435.285 398.144C433.067 397.01 425.382 396.04 422.475 395.629L421.688 396.118C421.443 398.297 421.836 398.29 420.624 399.397C418.416 399.351 419.309 399.716 417.712 398.671C417.492 397.104 417.595 396.87 417.794 395.332C416.258 393.605 404.071 391.834 401.76 392.614C400.842 393.784 400.909 393.808 400.421 395.24C398.835 395.778 399.672 395.652 397.784 395.265C397.027 394.166 397.296 393.236 397.4 391.855C395.386 389.953 386.196 389.284 382.508 388.377L382.498 288.798C382.485 271.346 382.812 252.295 382.317 234.925C386.261 233.566 395.648 231.107 398.577 229.758C399.171 227.804 399.089 227.11 399.137 225.026C400.619 224.769 400.777 224.55 402.077 225.165C402.449 226.467 402.454 226.801 403.165 227.927C405.745 228.646 417.307 225.391 418.665 223.244C419.28 219.295 418.977 219.711 422.43 218.293Z"/>
  <path fill="#EB5228" d="M482.7 208.531L483.149 208.64C484.086 210.646 483.512 386.402 483.48 403.074C477.304 401.696 469.782 400.359 463.511 399.299C463.348 396.713 463.197 395.128 463.419 392.52C467.613 387.942 467.662 389.464 466.232 382.627C465.077 381.911 465.205 382.076 463.833 381.913L463.443 381.061L463.521 353.52C468.095 353.591 477.681 354.237 481.229 352.232L481.221 351.414C478.376 349.357 467.419 349.535 463.517 349.44C463.537 345.512 462.795 322.917 464.379 321.448C465.867 321.451 465.957 321.545 467.329 321.054C468.989 317.745 466.389 316.317 463.936 315.341C463.646 311.345 463.282 288.017 464.508 285.7C466.117 285.588 466.199 285.792 467.443 284.986C467.581 281.903 466.962 281.18 464.267 279.855C464.167 278.922 464.1 277.985 464.066 277.046C463.596 264.667 464.024 240.612 464.392 227.423C464.419 226.439 465.636 227.619 467.156 226.024C467.272 223.226 467.503 220.558 467.141 217.787L464.77 216.818L464.369 215.792L464.917 214.586C468.057 212.95 478.737 209.788 482.7 208.531Z"/>
  <path fill="#EB5228" d="M460.429 215.616L460.562 215.726C461.632 217.786 460.271 384.399 460.056 398.646L439.035 394.316C438.997 388.62 438.727 390.321 441.8 386.194C442.947 384.655 442.781 380.346 442.209 378.425C441.392 378.219 440.581 377.993 439.775 377.747L439.523 376.625L439.646 352.514C443.579 352.477 451.984 353.516 454.96 352.716C455.413 351.175 455.393 351.95 454.877 350.313C452.128 348.105 443.604 348.868 439.636 348.849C439.683 344.182 439.065 324.553 440.696 322.234C442.372 322.176 442.376 322.376 443.752 321.615C444.196 319.924 443.89 318.863 442.746 317.622C440.979 317.361 441.455 317.692 440.184 316.757C440.054 312.792 439.829 290.533 440.954 288.196L443.429 287.858C445.093 285.269 443.487 283.845 441.144 283.06C439.278 280.126 441.3 240.847 440.481 234.528C440.204 232.386 442.082 233.566 443.522 232.282C444.001 229.882 444.345 226.1 443.623 223.752C442.341 223.433 442.267 223.501 441.202 222.764L441.423 221.846C444.051 220.112 456.798 216.681 460.429 215.616Z"/>
  <path fill="#EB5228" d="M417.812 228.52L418.633 228.574C419.989 231.52 418.423 335.787 418.446 347.34C413.875 347.097 410.533 346.54 406.274 348.217L406.143 349.165C408.705 351.254 415.06 351.174 418.463 351.389C418.414 364.512 418.271 377.635 418.033 390.756C414.324 390.043 410.274 389.469 406.522 388.863C404.412 388.56 403.13 388.574 401.349 387.515C400.39 385.98 400.536 385.545 400.565 383.752C402.047 381.318 400.903 384.214 403.658 382.336C404.268 378.746 403.857 376.351 401.4 373.631C400.789 369.826 401.164 324.272 401.838 322.889C403.134 322.707 403.191 322.783 404.315 322.163C404.771 319.068 404.049 319.297 401.718 317.936C401.353 311.358 401.547 304.689 401.509 298.102C401.47 291.4 402.089 294.168 404.604 291.839C404.652 290.291 404.812 290.223 404.037 288.94C402.607 288.568 403.038 288.877 402.029 287.984C401.383 274.296 401.452 254.973 402.325 241.339C404.236 239.68 404.287 239.689 404.547 237.556C403.809 235.89 403.143 234.955 403.522 233.209C404.899 231.928 415.467 229.213 417.812 228.52Z"/>
  <path fill="#EB5228" d="M397.8 234.016C398.123 234.121 398.446 234.226 398.77 234.332C399.247 237.538 398.932 242.608 398.934 246.09C398.966 254.749 398.894 263.408 398.718 272.065L398.032 346.812L387.875 346.658L386.757 346.629C386.135 345.455 386.118 247.424 386.095 237.428C389.94 236.392 393.96 235.141 397.8 234.016Z"/>
  <path fill="#EB5228" d="M437.42 222.582C437.963 223.793 436.88 385.917 435.767 393.565C434.073 394.024 433.618 393.621 431.734 393.154L431.025 392.704C430.103 390.883 430.578 241.562 430.574 224.88L437.42 222.582Z"/>
  <path fill="#EB5228" d="M425.439 236.843L426.624 237.391C426.854 238.865 427.113 240.334 427.399 241.797C428.208 257.838 427.519 279.161 427.508 295.664L427.524 392.591L421.223 391.027C420.942 389.074 420.651 387.782 421.524 386.304C422.923 385.656 423.265 385.622 424.338 384.501C426.209 376.617 421.024 376.849 421.08 372.013C421.265 356.034 421.442 339.074 421.614 323.014C421.634 321.168 423.052 322.975 424.929 321.031C425.064 316.422 423.491 319.606 421.754 316.626C421.676 313.271 421.372 292.143 422.315 290.278L424.805 289.65C425.762 288.322 425.438 289.088 425.403 287.14C423.451 284.39 424.712 287.424 422.2 285.447C421.772 280.594 421.491 239.397 422.755 237.323L425.439 236.843Z"/>
  <path fill="#EB5228" d="M386.11 350.289C389.923 350.513 394.145 350.528 397.993 350.622C397.933 362.716 397.777 374.809 397.526 386.901C395.849 387.164 388.507 385.677 386.355 385.295L386.11 350.289Z"/>
  <path fill="#F46835" d="M425.439 236.843L425.521 235.899C425.908 231.222 425.829 231.49 423.106 227.656C423.729 226.398 424.392 226.39 426.064 225.813C426.537 225.652 427.012 225.496 427.489 225.344C427.463 230.714 427.537 236.459 427.399 241.797C427.113 240.334 426.854 238.865 426.624 237.391L425.439 236.843Z"/>
  <path fill="#FEFEFE" d="M504.214 207.187C508.652 208.094 527.913 216.177 533.475 218.378C548.612 224.256 563.796 230.009 579.027 235.637C610.401 247.425 642.382 256.887 673.476 268.174L673.533 370.609C665.009 372.623 653.626 374.513 644.863 376.146C597.694 384.843 551.442 395.468 504.598 405.123C504.068 396.013 504.339 384.527 504.336 375.242L504.31 324.396C504.269 286.264 503.412 245.021 504.214 207.187Z"/>
  <path fill="#EB5228" d="M507.491 211.98C512.256 213.606 517.072 215.804 521.711 217.81C521.597 236.705 522.735 394.942 521.455 397.863L519.879 398.273L507.685 400.956C506.944 338.389 507.556 274.652 507.491 211.98Z"/>
  <path fill="#EB5228" d="M523.895 218.558C526.614 219.51 529.959 220.951 532.691 222.036L532.64 350.476L532.617 381.487C532.614 383.841 532.779 393.53 532.347 395.379L530.894 395.966L523.872 397.467L523.821 289.436C523.787 266.627 523.175 241.194 523.895 218.558Z"/>
  <path fill="#EB5228" d="M534.88 222.79L543.257 225.988C543.792 232.315 543.476 243.544 543.48 250.179L543.492 295.527C543.494 304.521 544.396 389.369 543.113 393.151L541.881 393.624L534.639 395.228L534.88 222.79Z"/>
  <path fill="#EB5228" d="M545.595 226.717L554.439 230.045L554.377 336.426C554.381 353.607 554.449 370.955 554.39 388.149C554.383 390.086 554.423 390.157 553.392 391.098L545.705 392.786C545.292 373.488 545.632 353.027 545.636 333.627L545.595 226.717Z"/>
  <path fill="#EB5228" d="M556.414 230.763L565.44 234.416C565.899 275.183 565.088 344.266 565.3 388C565.137 388.223 564.973 388.446 564.809 388.668C562.185 389.315 559.189 389.842 556.513 390.375L556.414 230.763Z"/>
  <path fill="#EB5228" d="M567.577 235.225C570.127 236.011 573.668 237.488 576.242 238.474C576.495 245.456 576.233 253.388 576.23 260.488L576.25 304.331C576.245 331.273 576.853 359.489 576.31 386.308C573.519 387.024 570.229 387.668 567.379 388.3L567.577 235.225Z"/>
  <path fill="#EB5228" d="M578.152 239.132C580.79 239.914 584.46 241.38 587.127 242.355C586.779 260.131 587.056 278.852 587.064 296.678L587.195 383.506L586.364 384.195C583.659 384.879 581.021 385.33 578.282 385.833C578.526 336.933 578.483 288.032 578.152 239.132Z"/>
  <path fill="#EB5228" d="M589.031 243.184C591.468 243.878 595.168 245.317 597.656 246.195C598.588 274.41 597.788 306.079 597.865 334.622L597.91 367.039C597.916 371.422 598.045 376.216 597.904 380.594C597.87 381.634 597.803 381.377 596.89 382.078C594.387 382.545 591.834 383.119 589.338 383.648C588.87 367.574 589.112 350.266 589.106 334.131L589.031 243.184Z"/>
  <path fill="#EB5228" d="M599.946 246.89L608.507 249.907L608.626 344.159C608.63 348.28 608.884 377.313 608.354 379.736C605.677 380.315 602.732 380.796 600.016 381.29L599.946 246.89Z"/>
  <path fill="#EB5228" d="M610.589 250.486C613.454 251.403 616.619 252.663 619.472 253.731C619.586 282.933 619.681 344.358 619.401 376.982C619.208 377.199 619.014 377.416 618.821 377.633L610.739 379.326L610.589 250.486Z"/>
  <path fill="#EB5228" d="M621.44 254.205L630.175 257.289C630.431 282.271 630.504 307.254 630.396 332.238C630.399 337.749 630.898 374.122 629.893 375.574L621.537 377.092L621.44 254.205Z"/>
  <path fill="#EB5228" d="M632.426 258.137C634.893 258.722 638.697 260.099 641.2 260.938C641.519 268.024 641.27 276.63 641.253 283.816L641.255 322.774L641.349 353.799C641.384 359.715 641.647 367.446 641.278 373.216C638.477 373.908 635.317 374.39 632.453 374.898L632.426 258.137Z"/>
  <path fill="#EB5228" d="M643.1 261.537C645.942 262.388 648.937 263.435 651.772 264.371C652.176 287.529 651.875 311.935 651.914 335.167L651.986 358.329C651.998 361.911 652.191 367.794 651.787 371.191C649.014 371.902 646.199 372.342 643.378 372.839L643.1 261.537Z"/>
  <path fill="#EB5228" d="M653.749 265.095C656.82 266.166 659.324 266.998 662.461 267.857C662.748 294.249 662.896 340.268 662.826 368.486C662.653 368.706 662.479 368.926 662.306 369.146L653.938 370.858C654.059 336.154 654.314 299.757 653.749 265.095Z"/>
  <path fill="#EB5228" d="M664.757 268.709C666.219 269.16 667.304 269.555 668.731 270.113C669.003 270.444 669.275 270.775 669.548 271.107C669.988 298.077 670.06 342.563 669.742 367.717C668.228 368.028 666.504 368.631 665.176 368.098C664.41 362.575 664.56 338.021 664.642 331.832C664.916 311.276 663.981 289.059 664.757 268.709Z"/>
  <path fill="#6B6C6C" d="M389.184 580.425C394.765 579.563 412.574 579.964 419.208 579.972L478.588 580.042L583.011 580.089C602.011 580.074 625.069 579.475 643.774 580.382C619.759 628.675 576.877 675.228 534.058 707.608C530.994 709.925 518.921 719.457 516.404 720.016C469.438 691.482 413.343 629.817 389.184 580.425Z"/>
  <path fill="#AEAEAE" d="M389.184 580.425C399.246 581.203 418.222 580.571 428.955 580.576L516.496 580.625L516.554 668.321C516.561 684.16 517.147 704.572 516.404 720.016C469.438 691.482 413.343 629.817 389.184 580.425Z"/>
  <path fill="#FEFEFE" d="M464.182 611.559C464.733 611.537 466.896 611.475 467.297 611.54C470.828 612.115 475.387 619.385 477.431 622.183C477.486 620.342 477.186 612.807 477.593 612.012C478.982 611.787 479.047 611.632 480.316 612.131C480.307 612.148 479.038 614.286 479.04 614.252C478.872 617.535 479.937 626.254 478.195 628.686L477.052 628.06L467.481 615.953C467.457 618.648 467.316 623.913 467.626 626.721C467.798 628.28 468.545 625.979 468.936 628.312C466.839 628.643 466.448 628.55 464.292 628.335C464.585 627.618 464.993 627.107 465.447 626.485C465.741 621.91 466.874 615.316 464.182 611.559Z"/>
  <path fill="#FEFEFE" d="M509.648 618.445C509.097 623.822 507.835 619.656 504.565 622.603C504.31 624.202 504.9 626.489 506.242 627.494C507.825 627.638 509.592 626.178 511.223 625.283C511.881 626.486 511.572 626.038 511.335 627.908C509.645 628.935 502.286 628.572 499.882 628.415L499.503 627.967C499.722 627.762 500.651 626.917 500.705 626.738C501.292 624.802 500.867 615.62 500.727 613.853C499.572 612.968 499.76 613.369 499.186 612.206C501.037 611.66 508.326 611.644 510.194 612.163C511.285 613.669 510.95 613.155 511.016 615.346C509.613 613.941 509.382 613.467 507.412 613.21C505.734 613.601 505.778 613.479 504.673 614.767C504.185 616.72 504.277 617.517 505.854 619.035C507.178 618.857 507.617 618.474 508.789 617.814L509.648 618.445Z"/>
  <path fill="#FEFEFE" d="M443.815 611.562C445.995 611.47 447.546 611.294 449.716 611.72C450.756 613.299 450.422 612.853 450.384 615.117C448.981 615.813 448.84 613.302 445.64 612.465C444.006 613.376 444.712 612.732 443.851 614.858C444.992 618.948 458.842 622.873 447.146 628.803C444.382 629.007 442.024 629.629 440.005 627.367C439.784 625.343 439.692 626.351 440.602 624.28C442.494 626.261 447.034 630.054 448.151 625.063C445.703 620.63 434.676 617.864 443.815 611.562Z"/>
  <path fill="#FEFEFE" d="M489.656 611.567C492.624 611.413 494.643 610.785 496.359 613.417C496.293 615.173 496.571 614.416 495.552 615.789C494.955 614.999 494.534 614.155 494.105 613.264C492.433 612.599 492.488 612.521 490.622 612.788C486.983 614.799 486.474 621.18 487.994 624.799C488.671 626.411 491.372 627.156 492.985 627.539C494.465 627.054 494.556 626.879 496.061 627.054L495.541 627.755C482.667 633.01 476.753 615.737 489.656 611.567Z"/>
  <path fill="#FEFEFE" d="M453.571 611.606C455.867 611.644 457.979 611.497 460.263 611.365L460.936 612.041C459.095 615.159 458.79 625.045 460.587 628.002L460.27 628.471C458.467 628.5 455.975 628.687 454.306 628.216C455.605 623.306 457.302 615.657 453.571 611.606Z"/>
  <path fill="#FEFEFE" d="M549.941 611.405C559.764 611.119 559.748 624.162 553.53 628.981C543.896 628.626 543.918 616.603 549.941 611.405Z"/>
  <path fill="#6B6C6C" d="M551.42 612.297C554.804 614.454 553.852 624.721 552.207 628.054C548.687 625.286 549.396 615.829 551.42 612.297Z"/>
  <path fill="#FEFEFE" d="M579.101 615.377C580.166 613.886 581.042 612.358 582.595 611.435L583.51 611.627C584.778 614.228 584.056 618.81 584.1 621.716C584.102 621.788 585.575 622.952 585.796 623.122C585.101 626.506 582.743 624.112 585.223 628.251C583.612 628.918 581.336 628.981 579.803 628.079C579.655 626.712 579.678 627.032 579.831 625.66C578.106 623.518 576.268 625.744 573.921 623.944C573.782 622.568 574.462 621.818 575.196 620.593L579.101 615.377Z"/>
  <path fill="#6B6C6C" d="M579.101 615.377C581.571 616.913 580.827 619.25 580.337 621.988L575.822 622.016L575.196 620.593L579.101 615.377Z"/>
  <path fill="#E6E8E9" d="M579.101 615.377C581.571 616.913 580.827 619.25 580.337 621.988C580.211 620.029 580.456 618.821 579.487 617.361C578.147 617.958 576.717 620.635 575.822 622.016L575.196 620.593L579.101 615.377Z"/>
  <path fill="#FEFEFE" d="M562.855 611.485C565.745 611.329 569.953 611.284 570.165 615.34C570.376 619.376 565.797 622.222 564.616 624.903C566.112 625.374 568.504 624.406 570.46 624.056L570.901 624.709C570.557 626.761 570.861 627.014 569.729 628.361L567.125 628.499L558.901 628.514C560.947 625.788 568.518 618.09 565.429 614.744C562.724 614.321 562.06 615.428 559.682 615.36C560.683 613.302 561.115 613.081 562.855 611.485Z"/>
  <path fill="#FEFEFE" d="M534.948 611.492C545.157 610.939 543.027 617.804 537.994 623.103L536.753 624.409L536.317 624.86C537.866 625.409 540.799 624.517 542.801 624.182L543.144 625.407C542.594 628.404 542.072 628.271 539.625 628.515L530.95 628.5C533.328 625.58 539.221 619.285 537.806 615.486C536.108 614.465 534.599 614.948 532.433 614.88C532.779 613.284 533.743 612.651 534.948 611.492Z"/>
  <path fill="#FEFEFE" d="M521.02 620.021C523.354 619.888 525.495 619.531 527.652 620.283C528.76 621.717 528.387 620.874 528.324 623.075C526.083 623.209 524.171 623.774 522.022 623.181C520.77 621.891 521.165 622.328 521.02 620.021Z"/>
  <path fill="#EB5228" d="M175.448 580.464L375.021 580.173C405.498 642.531 458.823 697.665 516.475 735.705C528.602 727.318 541.117 718.499 552.529 709.18C592.324 676.683 636.279 627.556 657.295 580.28L801.775 580.379C816.919 580.38 832.093 580.031 847.214 580.376C851.707 580.479 860.53 580.396 864.542 581.222C838.527 583.056 811.025 586.052 784.915 588.454L673.627 598.471C630.756 672.41 586.321 713.673 516.855 762.658C463.582 728.378 411.045 679.764 376.469 626.779C370.768 618.044 364.095 607.793 359.405 598.478C340.543 597.51 320.647 595.392 301.749 593.664L175.038 581.67L175.448 580.464Z"/>
  <path fill="#6B6C6C" d="M364.882 269.627L365.363 269.829C366.178 271.538 365.958 290.353 365.978 293.275C345.693 295.569 319.814 300.62 300.539 307.051C301.25 312.111 301.604 319.948 302.014 325.2C302.791 335.248 303.72 345.284 304.802 355.304C307.063 376.552 310.585 397.214 312.903 417.943C296.756 417.192 278.822 417.571 262.572 417.606C231.934 417.81 201.295 417.762 170.657 417.462C158.348 417.355 145.285 417.622 133.067 417.134L128.876 416.883C147.137 414.598 166.334 413.173 184.772 411.214C219.437 407.22 254.144 403.592 288.886 400.333C281.976 365.997 280.293 323.003 278.139 288.082C297.153 281.368 316.737 276.392 336.651 273.216C346.221 271.722 355.35 270.899 364.882 269.627Z"/>
  <path fill="#AEAEAE" d="M691.964 272.593C713.415 276.787 731.761 281.067 752.605 287.924C750.862 322.262 747.211 366.119 741.335 400.283L891.991 416.166L892.133 416.73C888.247 417.58 883.629 416.96 879.789 417.188C870.371 417.748 853.731 416.294 844.849 417.433L717.852 417.335C719.301 410.759 721.064 396.421 721.99 389.045C725.306 362.646 728.863 333.496 729.494 306.954C715.465 302.511 706.542 300.558 692.05 297.798L691.964 272.593Z"/>
  <path fill="#FEFEFE" d="M572.867 448.087C577.439 447.677 591.836 447.079 595.254 449.39L598.742 451.74C599.26 450.599 599.369 449.758 599.613 448.545C601.481 447.272 625.911 447.93 629.95 447.963C623.722 471.999 617.34 495.994 610.805 519.948L604.093 519.995C596.844 519.95 587.922 520.477 580.861 519.957C580.345 518.831 580.711 518.26 580.934 516.774L580.647 516.457C579.913 516.742 579.177 517.022 578.44 517.298C569.779 520.534 550.837 524.055 547.288 512.081C546.813 510.494 546.664 508.828 546.849 507.182C547.649 500.233 557.765 461.697 560.665 456.563C563.303 451.896 567.853 449.407 572.867 448.087ZM584.249 504.49C587.793 492.086 593.86 471.782 596.089 459.507C594.303 459.449 591.714 459.451 590.016 459.142C586.933 471.224 580.599 491.911 578.627 503.481C579.595 504.966 582.567 504.535 584.249 504.49Z"/>
  <path fill="#FEFEFE" d="M370.924 448.115C379.292 447.434 412.685 446.568 418.931 449.492C421.129 450.521 422.641 452.486 423.392 454.765C424.035 456.715 424.107 458.746 423.826 460.768C422.772 468.352 413.234 504.381 410.008 510.22C407.25 515.212 402.081 517.931 396.815 519.428C387.154 521.117 374.627 519.475 364.709 520.105C354.819 521.01 340.838 518.196 344.648 504.489C348.925 489.103 352.451 469.825 358.977 455.162C360.662 451.378 367.118 448.881 370.924 448.115ZM374.178 508.051C375.968 508.123 378.532 508.142 380.24 508.437C384.619 494.04 389.639 474.548 393.115 459.952L387.131 459.561C382.707 475.696 378.389 491.86 374.178 508.051Z"/>
  <path fill="#FEFEFE" d="M435.721 447.876L470.318 447.837C477.032 447.825 486.378 447.364 492.749 448.588C506.133 451.16 497.118 471.544 494.976 479.47C491.446 493.007 487.762 506.503 483.925 519.956L453.567 520.02C456.815 507.289 460.145 494.578 463.556 481.889C465.194 474.788 467.49 466.83 469.364 459.709L462.92 459.519C461.366 466.941 458.831 475.424 456.823 482.809C453.436 495.169 450.236 507.579 447.222 520.035L416.106 520.036C422.631 496.277 428.84 471.373 435.721 447.876Z"/>
  <path fill="#FEFEFE" d="M677.767 447.957L712.086 447.818C745.62 447.711 745.692 447.913 737.146 479.823L726.16 519.969L695.613 520.005C699.208 507.035 702.72 494.043 706.147 481.028C708.11 473.946 709.984 466.839 711.768 459.71L705.367 459.547C700.948 478.789 694.389 500.749 689.083 520.009L658.187 520.017C664.693 497.677 672.169 470.441 677.767 447.957Z"/>
  <path fill="#FEFEFE" d="M765.156 448.083C776.755 447.338 788.97 448.3 800.633 447.907C808.358 447.647 819.36 448.521 817.536 459.488C815.467 471.938 811.419 484.908 808.106 497.195L777.186 497.319C780.526 484.798 784.418 472.11 787.397 459.533L780.862 459.526C778.988 468.886 775.622 480.089 773.175 489.582C771.808 494.301 770.513 499.497 769.233 504.272C781.254 504.499 793.786 504.354 805.848 504.386C804.342 509.549 802.885 514.727 801.478 519.918L768.13 520.068C762.081 520.091 756.28 520.225 750.1 519.9C742.238 519.984 736.55 513.861 738.283 505.754C741.481 491.359 745.483 477.04 749.364 462.809C751.839 453.731 755.965 449.953 765.156 448.083Z"/>
  <path fill="#FEFEFE" d="M179.841 431.627C185.928 431.093 194.181 431.302 200.388 431.304L232.675 431.32C231.322 436.597 229.93 441.865 228.5 447.123C217.473 447.238 206.445 447.197 195.419 446.999C194.51 452.78 191.892 461.613 190.184 467.258C198.899 467.444 207.925 467.38 216.667 467.437C215.463 472.608 213.85 477.95 212.393 483.076C203.58 483.181 194.765 483.171 185.952 483.046C184.626 489.386 181.298 497.952 180.342 503.876L181.109 504.316L212.94 504.406C211.891 509.334 210.33 514.999 209.086 519.945C198.153 519.994 159.331 521.696 152.111 517.875C150.002 516.76 148.574 514.502 147.882 512.275C147.156 509.941 147.232 507.62 147.618 505.234C148.794 497.953 151.391 490.523 153.303 483.375C156.271 472.279 160.888 450.065 165.668 441.129C168.637 435.58 174.141 433.271 179.841 431.627Z"/>
  <path fill="#FEFEFE" d="M352.341 431.247L359.04 431.265C357.707 436.814 356.326 441.742 354.729 447.207C343.043 447.464 331.292 447.114 319.555 447.323C314.724 466.36 308.741 485.208 304.146 504.128L339.17 504.34L335.297 520.004L314.25 520.01C306.112 519.997 281.122 521.932 275.314 516.907C272.74 514.679 271.554 511.483 271.489 508.128C271.412 504.098 286.578 448.436 288.662 443.37C289.655 440.958 291.396 438.715 293.259 436.913C295.63 434.619 298.201 433.15 301.398 432.323C308.088 430.593 315.978 431.294 322.865 431.271L352.341 431.247Z"/>
  <path fill="#FEFEFE" d="M516.633 431.077C526.723 431.219 536.814 431.272 546.905 431.237C545.406 436.223 543.941 442.673 542.638 447.806L554.165 447.999L550.588 463.916L538.541 463.778C535.634 477.026 531.121 490.722 528.02 504.218C531.869 504.372 535.247 503.467 538.326 504.945C539.126 506.512 538.71 506.522 538.267 508.753L535.241 520.019C513.375 519.614 487.678 526.33 499.499 494.059C500.698 490.786 501.812 485.562 502.779 482.012L516.633 431.077Z"/>
  <path fill="#FEFEFE" d="M241.737 431.246C250.888 431.229 260.039 431.286 269.189 431.415C264.02 454.137 251.88 495.496 245.529 519.562C245.396 520.068 243.908 519.928 243.125 519.956L215.083 520.039C221.154 496.037 228.17 472.238 234.197 448.216C235.539 442.868 237.016 437.341 238.697 432.101C239.895 430.988 239.617 431.353 241.737 431.246Z"/>
  <path fill="#FEFEFE" d="M841.229 448.101C852.738 447.276 871.959 447.877 883.864 447.924L880.713 460.638L856.702 460.478C852.6 476.787 848.346 493.058 843.942 509.287L841.163 519.975L810.575 519.95C813.21 509.453 825.241 460.48 829.244 454.696C832.099 450.568 836.477 448.934 841.229 448.101Z"/>
  <path fill="#FEFEFE" d="M638.399 447.967L669.025 447.965C663.157 471.578 656.206 496.424 649.79 519.959C639.548 520.042 629.305 520.053 619.063 519.991C625.226 496.032 632.084 471.971 638.399 447.967Z"/>
  <path fill="#FEFEFE" d="M722.18 541.475C728.748 541.472 748.403 540.671 753.072 542.526C755.616 545.77 750.135 562.163 747.312 565.382C742.707 566.586 721.682 566.035 715.558 565.984C717.799 557.735 719.678 549.698 722.18 541.475ZM729.213 562.644C731.567 562.728 734.88 562.966 737.145 562.708C738.609 556.633 740.205 550.59 741.931 544.583L733.822 544.617C732.125 550.584 730.914 556.825 729.213 562.644Z"/>
  <path fill="#FEFEFE" d="M414.616 541.7C420.508 541.139 434.671 541.051 440.753 541.97C441.517 542.086 442.41 542.921 442.585 543.807C443.584 548.87 440.74 557.19 438.783 561.907C437.651 564.637 436.128 565.006 433.794 565.838C429.721 566.263 409.346 567.17 407.017 564.56C405.687 560.779 407.693 554.814 408.909 550.982C410.282 546.658 410.684 543.795 414.616 541.7ZM418.565 562.617L426.233 562.569C427.931 556.688 429.301 550.752 430.729 544.8C428.555 544.818 425.576 544.752 423.473 544.937L418.565 562.617Z"/>
  <path fill="#FEFEFE" d="M788.13 541.603C795.725 541.518 805.273 540.816 812.701 541.495C820.017 542.164 815.769 551.862 814.298 555.717C812.717 559.858 814.228 563.07 808.897 565.515C804.256 566.237 785.101 566.995 781.172 564.694C779.528 561.826 781.465 555.706 782.403 552.592C783.704 548.271 784.027 543.989 788.13 541.603ZM795.678 562.86C797.46 562.883 798.851 563.163 800.226 562.163C801.245 559.038 804.22 548.189 804.481 545.104C803.128 544.506 802.141 544.676 800.657 544.715C794.119 545.511 796.099 550.677 794.28 555.862C793.736 557.412 792.571 560.786 792.506 562.187C793.901 562.806 794.177 562.734 795.678 562.86Z"/>
  <path fill="#FEFEFE" d="M661.752 541.657C668.831 541.33 679.357 541.451 686.279 541.331C694.432 541.19 686.979 560.497 685.467 565.995C682.678 566.089 675.204 566.564 672.851 565.792L672.66 564.843L674.66 557.669C671.871 557.915 669.646 557.813 666.867 557.738L665.068 566.143L651.939 566.109C653.383 560.096 654.778 553.573 656.655 547.712C657.771 544.225 658.655 543.137 661.752 541.657ZM667.867 554.913L674.556 554.974L675.553 554.534C676.65 551.441 677.359 547.968 678.112 544.757L671.703 544.697C669.788 545.828 669.798 547.313 669.172 549.74L667.867 554.913Z"/>
  <path fill="#FEFEFE" d="M227.259 541.643C234.377 541.091 242.578 541.931 249.741 541.147C260.827 539.932 252.411 559.863 250.76 566.016C248.303 566.083 239.804 566.65 238.103 565.42L239.868 558.186C237.559 558.246 234.873 558.141 232.532 558.111L230.299 565.979L217.525 565.943C219.083 560.892 220.235 555.737 221.7 550.695C222.988 546.263 223.266 543.902 227.259 541.643ZM233.227 555.153C235.87 555.335 238.037 555.546 240.698 555.396L243.54 544.458L235.968 544.53L233.227 555.153Z"/>
  <path fill="#FEFEFE" d="M536.167 541.669C541.438 541.222 548.016 541.619 553.004 541.269C563.791 540.51 566.472 541.979 563.119 552.98C561.878 557.052 560.569 562.078 559.438 566.06C556.859 566.111 548.615 566.595 546.848 565.392L548.603 558.048L541.107 558.01L539.203 566L526.431 566.03C528.009 560.327 529.249 554.34 531.009 548.719C532.175 544.995 532.839 543.369 536.167 541.669ZM542.065 555.463C544.136 555.535 547.227 555.738 549.212 555.597C550.265 551.768 551.172 548.414 551.966 544.531L544.959 544.525C543.902 548.172 542.811 551.735 542.065 555.463Z"/>
  <path fill="#FEFEFE" d="M287.757 541.39L300.346 541.499L295.037 562.536L302.446 563.003L308.111 541.482C310.41 541.436 318.641 541 320.367 542.055L320.354 543.141C319.196 547.638 316.281 560.42 314.141 563.984C310.166 567.12 286.678 567.269 282.891 564.282C281.841 560.8 286.552 545.771 287.757 541.39Z"/>
  <path fill="#FEFEFE" d="M592.476 541.486C596.789 541.451 601.102 541.444 605.415 541.465C607.4 547.582 609.231 553.746 610.909 559.954C615.507 554.638 620.105 549.001 625.069 544.029C626.765 542.331 628.694 541.184 631.136 542.188C630.949 543.6 629.94 544.408 628.908 545.741C623.243 552.094 617.395 559.785 611.602 565.743C608.025 566.03 603.6 565.945 599.941 565.966C597.143 557.828 594.858 549.743 592.476 541.486Z"/>
  <path fill="#FEFEFE" d="M350.076 541.622C354.57 541.589 378.092 541.177 381.094 541.986L381.384 542.972L380.748 544.019C378.267 545.161 374.395 544.856 371.465 544.905C370.686 548.915 369.339 553.729 368.328 557.75L366.138 566.05L353.539 565.955C355.244 558.883 357.026 551.829 358.882 544.794C355.915 544.714 352.326 545.804 350.086 543.758L350.076 541.622Z"/>
  <path fill="#FEFEFE" d="M475.512 541.531L488.061 541.528C486.564 548.373 484.532 555.819 482.811 562.664C487.462 562.827 491.559 561.783 495.731 563.324C496.489 564.56 496.173 564.349 495.712 566.286L469.047 566.12C471.425 558.19 473.011 549.79 475.512 541.531Z"/>
  <path fill="#FEFEFE" d="M642.94 431.394L673.397 431.482C672.499 434.77 671.555 439.978 670.319 442.93C660.877 442.52 649.48 442.415 640.066 442.843C640.899 439.114 641.995 435.122 642.94 431.394Z"/>
  <path fill="#35363B" fill-opacity="0.89803922" d="M891.991 416.166C895.548 416.426 897.966 416.495 901.413 417.442C893.954 417.877 882.338 417.53 874.469 417.533C865.727 417.536 853.189 417.986 844.849 417.433C853.731 416.294 870.371 417.748 879.789 417.188C883.629 416.96 888.247 417.58 892.133 416.73L891.991 416.166Z"/>
  <path fill="#7F260C" fill-opacity="0.98431373" d="M164.74 580.46C168.309 580.408 171.879 580.409 175.448 580.464L175.038 581.67C170.906 581.512 168.745 581.253 164.74 580.46Z"/>
</svg>
