<?xml version="1.0" encoding="utf-8" ?><svg xmlns="http://www.w3.org/2000/svg" xmlns:xlink="http://www.w3.org/1999/xlink" width="1024" height="1024" viewBox="0 0 1024 1024"><path d="M493.694 187.715C495.132 187.73 495.134 187.629 496.398 188.248C500.261 189.922 506.1 192.241 509.687 194.14L510.761 200.106C518.96 205.018 540.813 212.415 550.549 216.264C578.529 227.326 607.012 237.544 635.438 247.404L654.931 254.037C658.826 255.385 663.626 257.442 667.574 258.122C668.745 257.711 668.921 257.593 670 256.958C672.981 257.068 679.032 259.591 681.896 260.892C681.665 284.998 681.618 309.105 681.756 333.211C681.839 347.297 682.214 362.731 681.786 376.749C662.031 381.665 637.322 386.165 617.1 390.225C594.206 394.808 571.369 399.673 548.595 404.821C531.292 408.607 513.618 412.293 496.491 416.717L493.693 417.267C482.489 414.123 462.175 411.006 449.946 408.74L375.485 394.483C376.239 348.176 374.933 301.335 375.598 254.985C375.749 244.459 375.313 233.852 375.492 223.263C380.044 223.817 384.557 224.654 389.005 225.768C395.772 223.242 404.947 221.223 412.074 218.874C433.699 211.748 457.828 205.774 479.045 197.962C479.663 195.968 480.484 194.147 481.294 192.226C485.032 190.572 489.276 189.706 493.694 187.715Z"/><path d="M493.694 187.715C495.132 187.73 495.134 187.629 496.398 188.248C497.289 263.857 496.387 340.919 496.491 416.717L493.693 417.267C482.489 414.123 462.175 411.006 449.946 408.74L375.485 394.483C376.239 348.176 374.933 301.335 375.598 254.985C375.749 244.459 375.313 233.852 375.492 223.263C380.044 223.817 384.557 224.654 389.005 225.768C395.772 223.242 404.947 221.223 412.074 218.874C433.699 211.748 457.828 205.774 479.045 197.962C479.663 195.968 480.484 194.147 481.294 192.226C485.032 190.572 489.276 189.706 493.694 187.715Z"/><path fill="#818181" d="M493.694 187.715C495.132 187.73 495.134 187.629 496.398 188.248C497.289 263.857 496.387 340.919 496.491 416.717L493.693 417.267C493.323 405.562 493.431 393.341 493.574 381.62C494.365 317.132 492.079 252.154 493.694 187.715Z"/><path fill="#818181" d="M484.214 204.015C484.945 204.05 485.871 203.884 486.123 204.466C488.509 209.986 487.438 224.491 487.428 229.987L487.396 270.533C487.52 316.225 487.383 361.918 486.984 407.608C481.965 406.213 469.784 404.058 464.791 404.032C462.106 405.587 465.042 404.651 462.796 407.296C460.988 407.382 461.712 407.684 460.419 406.805C460.142 405.767 459.445 403.065 458.65 402.724C455.044 401.182 443.408 398.56 439.96 399.426C439.621 400.303 439.396 401.178 439.197 402.097C437.585 402.95 438.468 402.655 436.288 402.496C434.548 400.651 436.489 400.698 434.975 398.226C429.181 396.172 424.957 393.895 420.242 398.827L419.753 399.348L418.467 399.244C417.308 398.011 417.721 398.048 417.692 395.747C415.757 393.434 404.97 392.016 401.672 392.504C402.007 392.454 400.367 395.39 398.659 396.53C397.596 395.355 397.518 393.656 397.171 392.091C395.552 390.163 385.696 388.933 382.517 388.285L382.381 234.872C386.251 233.759 395.382 231.667 398.479 229.318C399.397 228.622 398.016 227.22 399.759 225.065C404.115 224.16 401.002 226.831 403.751 228.396C407.828 227.537 413.89 226.313 417.671 224.237C418.969 223.524 418.813 221.942 419.048 220.297C420.313 218.933 419.547 219.407 421.531 219.014L422.371 219.577C422.547 220.78 422.655 221.381 422.964 222.555C425.289 222.91 436.062 220.184 437.268 217.612C437.608 216.887 436.84 215.381 438.097 213.645C440.172 213.119 439.302 212.936 440.869 213.709C441.309 214.979 441.472 215.488 442.09 216.669C445.333 217.31 456.977 212.913 460.082 210.943C460.703 210.548 460.527 207.854 460.564 206.981C461.706 205.764 461.048 206.286 463.124 205.924C465.494 207.238 463.28 207.266 465.517 209.373C470.021 209.263 479.605 205.592 484.214 204.015Z"/><path d="M482.483 208.559C482.781 208.683 483.466 209.317 483.468 209.483C483.579 218.948 483.528 245.747 483.527 253.714L483.509 403.007C476.864 401.635 470.196 400.375 463.509 399.226C463.379 396.975 463.424 394.655 463.428 392.395L467.134 388.496C466.403 380.159 464.807 383.765 463.466 380.584L463.514 353.498C466.41 353.549 478.857 354.451 480.15 351.665C477.246 349.216 467.527 349.507 463.468 349.491C463.252 341.764 462.739 331.043 463.821 323.166C464.009 321.801 465.624 321.507 466.931 320.978C468.004 319.599 467.627 320.413 467.583 318.25C466.75 316.621 465.382 316.088 463.763 315.12C463.514 309.068 462.961 292.666 464.517 286.176C464.717 285.342 465.777 286.353 467.413 284.547C467.526 281.529 466.389 281.252 464.087 279.533C463.827 272.207 463.375 232.563 464.821 227.449L466.855 226.399C467.542 223.841 467.57 220.536 466.932 217.964C465.619 217.171 465.476 217.21 464.558 216.026L464.874 215.02C467.981 212.46 478.226 209.844 482.483 208.559Z"/><path d="M458.818 216.02C460.015 215.962 459.483 215.784 460.408 216.567C461.28 220.907 460.935 232.489 460.916 237.366L460.865 269.247L459.836 398.611C454.224 397.34 449.148 396.614 443.544 395.563C441.423 395.165 440.364 394.375 439.326 392.592C438.854 389.349 440.548 387.765 442.441 385.072C442.747 380.592 443.625 379.342 439.515 377.289C439.475 369.017 439.516 360.745 439.638 352.474C442.887 352.507 453.243 353.98 455.083 351.895C455.277 347.664 442.788 348.82 439.531 348.897C439.494 344.783 438.685 325.085 440.982 322.599C442.231 322.225 442.981 322.181 443.809 321.223C443.932 319.58 444.028 319.656 443.182 318.27C442.131 317.72 441.465 317.342 440.466 316.703C439.592 313.317 439.671 290.391 441.253 288.328C442.906 287.94 442.48 288.26 443.709 287.326C443.752 284.166 440.006 282.322 440.058 276.414C440.199 262.312 440.317 248.101 440.859 234.015C440.846 234.345 445.709 229.183 444.095 225.601C442.953 223.067 444.035 224.509 441.479 222.523L441.538 222.073C444.769 219.574 454.514 217.247 458.818 216.02Z"/><path d="M417.334 228.512L418.465 228.818C420.626 235.033 418.517 333.385 418.42 347.398C415.069 347.061 410.123 346.594 407.248 348.35L407.229 349.182C410.43 351.432 414.536 351.165 418.482 351.358C418.501 364.494 418.347 377.63 418.021 390.762C414.469 390.102 410.698 389.554 407.114 388.977C404.792 388.64 402.645 388.505 400.971 386.848C400.599 381.363 407.213 381.997 401.066 373.08C400.915 360.379 400.963 347.678 401.211 334.979C401.28 331.808 401.342 327.903 401.543 324.708C401.7 322.225 403.721 323.676 404.461 320.753C403.638 318.861 403.499 319.217 401.572 317.78C401.506 313.293 400.846 296.271 402.248 293.166C403.535 292.444 404.142 292.335 404.701 291.02C404.357 289.256 404.581 289.747 402.719 288.289L402.187 287.877C400.724 277.359 401.696 252.469 402.305 241.53C404.799 238.606 404.251 237.553 404.255 233.543C405.93 231.124 414.023 229.454 417.334 228.512Z"/><path d="M397.668 234.056L398.619 234.447C399.343 237.311 398.814 266.609 398.748 271.678L398.033 346.867L387.879 346.585C387.195 346.431 387.617 346.57 386.691 345.98C386.035 333.985 386.354 318.41 386.295 306.175L386.115 237.341C389.946 236.315 393.847 235.149 397.668 234.056Z"/><path d="M436.193 222.982C436.924 222.939 436.515 222.889 437.385 223.305C438.181 239.296 437.015 390.864 435.227 393.462L432.481 393.895C429.841 391.825 430.594 374.915 430.575 370.914L430.48 336.067L430.6 224.844L436.193 222.982Z"/><path d="M426.493 225.367L427.389 226.001C427.782 230.267 427.512 239.934 427.511 244.6L427.538 279.56L427.514 392.609C422.433 391.375 416.608 389.184 424.432 384.612C424.787 379.085 424.494 378.377 421.111 374.206C420.936 368.618 420.986 325.161 421.906 322.397C423.241 321.932 423.47 321.878 424.671 321.164C425.037 319.568 425.082 320.341 424.466 318.767C423.872 318.384 421.934 317.143 421.87 316.703C421.285 312.734 421.234 292.885 422.448 290.426C424.608 289.646 425.367 289.803 425.24 287.473C423.055 285.562 421.781 283.839 421.786 280.882C421.809 266.717 421.706 252.444 422.651 238.311C422.761 236.672 424.553 237.943 425.849 236.04C425.772 232.571 424.845 230.687 423.636 227.404C424.366 225.925 424.541 226.264 426.493 225.367Z"/><path d="M386.097 350.34L398.014 350.534C397.912 362.629 397.746 374.724 397.515 386.818C393.852 386.715 390.056 385.918 386.429 385.268C386.224 373.626 386.113 361.983 386.097 350.34Z"/><path fill="#818181" d="M504.233 207.14C511.515 209.098 522.685 214.006 529.943 216.935C541.718 221.644 553.552 226.206 565.442 230.619C601.716 244.088 636.973 255.482 673.475 268.13L673.491 370.67C663.569 372.726 653.611 374.606 643.622 376.308C638.902 377.519 631.71 378.682 626.653 379.69L592.123 386.694C562.981 392.958 533.806 399.063 504.598 405.007C504.251 395.795 504.287 386.628 504.406 377.414C505.144 320.743 502.858 263.779 504.233 207.14Z"/><path d="M578.004 239.026C580.327 239.782 586.192 241.383 587.501 243.151C588.787 244.632 588.246 246.174 588.522 248.55C588.796 246.156 588.445 245.41 589.85 243.921C591.799 243.416 595.414 245.342 597.611 246.229C597.786 251.776 597.836 260.138 598.449 265.423C598.45 281.269 597.754 302.658 598.415 317.868C597.096 337.064 598.416 361.859 597.967 381.708C595.118 382.447 592.25 383.108 589.365 383.69C589.157 378.02 589.164 369.555 588.692 364.192L588.156 366.236L587.568 366.458C587.211 369.462 587.409 380.433 587.398 384.008C584.424 384.755 581.129 385.299 578.087 385.864C577.792 359.622 578.557 332.48 577.919 306.369C578.696 292.066 577.901 269.399 577.844 254.364C578.119 250.45 577.97 243.164 578.004 239.026Z"/><path d="M588.522 248.55C588.796 246.156 588.445 245.41 589.85 243.921C591.799 243.416 595.414 245.342 597.611 246.229C597.786 251.776 597.836 260.138 598.449 265.423C598.45 281.269 597.754 302.658 598.415 317.868C597.096 337.064 598.416 361.859 597.967 381.708C595.118 382.447 592.25 383.108 589.365 383.69C589.157 378.02 589.164 369.555 588.692 364.192C588.241 353.35 588.73 340.59 588.651 329.558C588.457 302.597 588.87 275.508 588.522 248.55Z"/><path fill="#AFAFAF" d="M587.501 243.151C588.787 244.632 588.246 246.174 588.522 248.55C588.87 275.508 588.457 302.597 588.651 329.558C588.73 340.59 588.241 353.35 588.692 364.192L588.156 366.236L587.568 366.458C587.203 351.463 587.495 335.158 587.478 320.041L587.501 243.151Z"/><path d="M507.6 212.033C512.091 213.529 517.378 215.882 521.817 217.724C522.353 263.593 522.109 348.383 521.648 397.274C521.644 397.784 520.105 398.128 519.377 398.384C515.428 399.344 511.52 400.096 507.538 400.882C507.198 358.658 507.161 316.433 507.429 274.209C507.449 254.259 506.898 231.609 507.6 212.033Z"/><path d="M610.581 250.499L619.63 253.777L621.412 254.135L630.17 257.256C630.551 282.1 630.697 306.946 630.609 331.793C630.625 343.818 631.27 363.989 630.207 375.544L621.449 377.117C621.449 373.347 621.636 358.934 621.013 355.682C619.675 353.827 620.095 346.462 619.906 343.327C619.119 352.17 619.54 368.176 619.504 377.458L610.639 379.396L610.581 250.499Z"/><path d="M610.581 250.499L619.63 253.777C619.853 273.343 619.951 292.91 619.923 312.477C619.918 321.321 619.448 334.754 619.906 343.327C619.119 352.17 619.54 368.176 619.504 377.458L610.639 379.396L610.581 250.499Z"/><path fill="#AFAFAF" d="M619.63 253.777L621.412 254.135C621.186 275.942 621.092 297.75 621.131 319.558C621.127 331.039 621.423 344.3 621.013 355.682C619.675 353.827 620.095 346.462 619.906 343.327C619.448 334.754 619.918 321.321 619.923 312.477C619.951 292.91 619.853 273.343 619.63 253.777Z"/><path d="M567.588 235.18C569.992 236.037 575.152 237.603 576.796 239.165C578.142 242.733 576.405 252.716 577.844 254.364C577.901 269.399 578.696 292.066 577.919 306.369C576.821 325.77 578.772 348.273 577.507 367.458C576.105 362.828 577.966 340.898 576.703 338.107C576.707 354.144 576.627 370.18 576.463 386.215L567.325 388.22L567.031 362.667L566.443 363.499C565.55 362.523 566.254 319.483 565.906 313.412C565.333 298.589 565.934 278.38 566.012 263.333C567.828 266.385 566.563 288.235 567.086 294.091C567.616 288.57 567.37 279.287 567.392 273.417L567.588 235.18Z"/><path fill="#9A9BA2" d="M576.796 239.165C578.142 242.733 576.405 252.716 577.844 254.364C577.901 269.399 578.696 292.066 577.919 306.369C576.821 325.77 578.772 348.273 577.507 367.458C576.105 362.828 577.966 340.898 576.703 338.107C576.481 315.151 576.484 292.194 576.711 269.238C576.726 261.865 576.006 245.671 576.796 239.165Z"/><path fill="#AFAFAF" d="M566.012 263.333C567.828 266.385 566.563 288.235 567.086 294.091C567.152 316.884 566.784 339.924 567.031 362.667L566.443 363.499C565.55 362.523 566.254 319.483 565.906 313.412C565.333 298.589 565.934 278.38 566.012 263.333Z"/><path d="M523.795 218.561C526.823 219.671 529.868 220.735 532.814 222.043L532.798 331.948C532.773 352.489 533.183 375.112 532.502 395.512C529.516 396.256 526.797 396.949 523.762 397.485C523.695 391.181 524.039 376.537 523.47 371.082C522.21 369.152 522.278 348.207 523.469 346.674C524.901 304.919 522.066 260.084 523.795 218.561Z"/><path fill="#AFAFAF" d="M523.47 371.082C522.21 369.152 522.278 348.207 523.469 346.674C523.633 353.787 523.772 363.934 523.47 371.082Z"/><path d="M554.663 234.811C555.008 233.613 555.17 232.112 555.35 230.856L556.194 231.485C558.415 231.014 563.189 233.38 565.537 234.377C565.558 239.269 565.376 259.553 566.012 263.333C565.934 278.38 565.333 298.589 565.906 313.412C565.357 322.518 565.509 333.558 565.486 342.753L565.435 388.468C562.526 389.077 559.356 389.81 556.453 390.319C556.432 385.644 556.592 369.964 555.997 366.179C554.46 363.692 555.028 341.883 555.032 337.346L555.103 275.259C555.108 271.996 555.426 255.952 554.728 254.109C554.799 247.742 554.692 241.194 554.663 234.811Z"/><path fill="#AFAFAF" d="M554.663 234.811C555.008 233.613 555.17 232.112 555.35 230.856L556.194 231.485L555.997 366.179C554.46 363.692 555.028 341.883 555.032 337.346L555.103 275.259C555.108 271.996 555.426 255.952 554.728 254.109C554.799 247.742 554.692 241.194 554.663 234.811Z"/><path d="M534.828 222.785C537.629 223.761 540.561 224.974 543.339 226.068C544.314 253.586 543.155 282.129 543.579 309.731C543.756 321.312 543.088 335.413 544.022 346.825C545.456 348.953 545.479 372.194 544.048 374.66C543.622 377.098 543.459 390.026 543.366 393.171C540.777 393.929 537.211 394.636 534.499 395.245C534.646 338.331 533.757 279.527 534.828 222.785Z"/><path fill="#AFAFAF" d="M544.022 346.825C545.456 348.953 545.479 372.194 544.048 374.66C543.988 365.382 543.98 356.103 544.022 346.825Z"/><path d="M545.603 226.735C551.703 229.08 554.402 227.533 554.663 234.811C554.692 241.194 554.799 247.742 554.728 254.109L554.419 390.698C552.163 391.446 548.081 392.306 545.627 392.89C545.173 369.569 545.476 346.413 545.482 323.097L545.603 226.735Z"/><path d="M599.943 246.915C602.677 247.837 605.919 248.843 608.535 249.929C608.609 292.306 609.531 337.61 608.493 379.738L599.921 381.272C599.739 372.462 600.162 358.047 599.51 349.816C597.937 347.952 598.759 322.68 598.415 317.868C597.754 302.658 598.45 281.269 598.449 265.423L599.649 265.418L599.943 246.915Z"/><path fill="#AFAFAF" d="M598.449 265.423L599.649 265.418C599.46 292.723 600.303 322.818 599.51 349.816C597.937 347.952 598.759 322.68 598.415 317.868C597.754 302.658 598.45 281.269 598.449 265.423Z"/><path d="M632.409 258.084C634.956 258.872 639.86 260.122 641.772 261.65C643.225 265.349 641.465 276.302 642.853 280.793C642.912 287.248 642.918 293.703 642.87 300.157C641.386 303.054 643.312 337.213 642.644 342.346C642.377 344.402 643.056 348.935 642.378 351.406C641.85 347.976 641.988 345.527 641.59 342.738C641.463 352.866 641.668 363.148 641.455 373.224C638.795 373.712 635.065 374.49 632.456 374.77C632.447 371.279 632.581 360.204 631.989 357.165C629.448 352.823 632.003 298.329 631.025 289.234C630.872 287.813 631.065 280.198 631.192 278.658C631.865 279.236 631.802 280.113 632.024 281.231L632.409 258.084Z"/><path fill="#9A9BA2" d="M641.772 261.65C643.225 265.349 641.465 276.302 642.853 280.793C642.912 287.248 642.918 293.703 642.87 300.157C641.386 303.054 643.312 337.213 642.644 342.346C642.377 344.402 643.056 348.935 642.378 351.406C641.85 347.976 641.988 345.527 641.59 342.738C640.686 328.907 641.976 309.613 641.617 295.119C641.442 288.033 641.102 267.637 641.772 261.65Z"/><path fill="#AFAFAF" d="M631.989 357.165C629.448 352.823 632.003 298.329 631.025 289.234C630.872 287.813 631.065 280.198 631.192 278.658C631.865 279.236 631.802 280.113 632.024 281.231C631.957 305.619 632.749 333.194 631.989 357.165Z"/><path d="M653.686 265.049L662.527 267.893C662.906 301.576 663.06 335.261 662.988 368.946L653.704 370.904C653.697 368.444 653.786 356.362 653.484 354.65C651.835 351.731 652.797 325.876 652.409 319.794C651.98 308.4 652.429 294.072 652.357 282.33C652.473 282.011 653.228 281.205 653.491 280.896C653.77 275.576 653.602 270.354 653.686 265.049Z"/><path fill="#AFAFAF" d="M652.357 282.33C652.473 282.011 653.228 281.205 653.491 280.896C653.679 305.48 653.677 330.066 653.484 354.65C651.835 351.731 652.797 325.876 652.409 319.794C651.98 308.4 652.429 294.072 652.357 282.33Z"/><path d="M642.989 261.441L651.807 264.362C651.847 266.862 651.938 280.558 652.357 282.33C652.429 294.072 651.98 308.4 652.409 319.794C652.149 322.018 652.174 324.28 652.138 326.517C651.893 341.423 652.536 356.327 651.988 371.229C649.104 371.838 646.196 372.31 643.291 372.809C642.778 348.558 643.313 324.321 642.87 300.157C642.918 293.703 642.912 287.248 642.853 280.793L642.989 261.441Z"/><path d="M664.687 268.714C666.487 269.273 667.94 269.5 669.249 270.804C669.903 275.169 669.696 292.761 669.751 298.118C669.951 321.386 669.962 344.655 669.785 367.923C668.189 368.074 666.476 368.502 665.212 367.736C664.533 364.582 664.508 360.754 664.534 357.514C664.768 327.957 663.92 298.249 664.687 268.714Z"/><path fill="#424142" d="M516.511 580.475C557.229 580.196 603.012 579.053 643.529 580.539C639.709 587.252 636.036 594.015 632.027 600.589C604.832 645.177 567.25 682.712 525.612 713.891C523.187 715.708 519.705 718.456 516.964 719.551L516.073 719.493C507.333 714.396 495.842 705.393 488.029 699.025C447.749 666.284 414.211 626.032 389.278 580.503C431.181 581.068 474.482 580.523 516.511 580.475Z"/><path fill="#AFAFAF" d="M389.278 580.503C431.181 581.068 474.482 580.523 516.511 580.475L516.701 677.25C516.657 686.07 517.082 711.424 516.073 719.493C507.333 714.396 495.842 705.393 488.029 699.025C447.749 666.284 414.211 626.032 389.278 580.503Z"/><path fill="#818181" d="M464.498 611.452C471.153 611.372 473.955 617.254 477.461 622.166C477.473 619.603 477.348 614.446 477.828 612.14L478.568 611.969C479.818 614.285 479.551 626.411 477.946 628.295L477.087 628.021L467.511 616.051C467.408 619.45 466.58 625.363 468.658 628.021L468.314 628.392C466.724 628.592 466.505 628.755 464.992 628.193C465.043 622.157 467.59 621.066 464.712 612.099L464.498 611.452Z"/><path fill="#818181" d="M500.251 611.625C503.081 611.438 509.385 610.795 510.776 613.87C508.127 613.629 506.89 613.243 504.809 614.667C503.929 616.669 503.92 615.762 504.201 617.518C505.271 618.573 507.736 618.601 509.373 618.812L509.449 619.809C508.449 621.507 507.994 621.164 505.567 622.056C504.349 623.765 504.743 623.354 504.649 625.852L505.482 626.776C508.044 627.407 508.26 626.648 511.248 626.202L511.515 626.973L510.863 627.803C508.356 628.728 502.96 628.633 500.33 628.198L500.713 625.164C501.301 620.681 501.227 616.868 499.767 612.489L500.251 611.625Z"/><path fill="#818181" d="M443.726 611.575C445.913 611.441 448.049 611.16 449.819 612.188C450.703 613.701 450.653 612.951 450.377 614.442C448.095 615.233 448.261 612.773 444.977 612.58C443.588 613.733 443.948 613.026 443.726 614.697C445.973 618.913 452.056 619.617 451.21 625.445C450.057 627.275 449.074 627.644 447.172 628.83C444.623 629.074 442.721 629.287 440.542 627.937C439.78 626.223 439.992 627.132 440.165 625.057C441.95 624.192 441.784 627.36 446.083 627.314C447.762 626.21 447.313 626.931 447.836 625.341C446.281 621.532 440.496 620.492 440.68 615.153C441.43 613.205 442.03 612.957 443.726 611.575Z"/><path fill="#818181" d="M489.456 611.571C492.622 611.333 493.56 611.007 496.098 612.769C496.856 614.229 496.854 613.531 496.49 614.892L495.543 615.371C494.805 614.554 494.056 613.747 493.297 612.95C492.284 612.678 492.212 612.459 491.167 612.739C486.537 613.981 486.68 619.531 487.693 623.232C488.372 625.715 489.509 626.291 491.557 627.453C492.985 627.361 493.406 627.244 494.809 627.569L494.282 628.189C482.817 631.04 476.672 617.698 489.456 611.571Z"/><path fill="#818181" d="M454.078 611.536L460.857 611.472C459.14 617.979 458.803 621.732 460.349 628.336C458.99 628.525 457.7 628.492 456.33 628.504C452.689 625.894 458.209 619.44 454.078 611.536Z"/><path fill="#818181" d="M549.707 611.373C560.417 611.479 558.802 622.397 554.047 628.893C543.509 629.401 544.744 617.681 549.707 611.373Z"/><path fill="#424142" d="M551.076 612.636C555.363 614.516 553.317 624.189 552.458 627.816C548.233 624.937 549.972 616.828 551.076 612.636Z"/><path fill="#818181" d="M579.312 615.132C580.418 613.626 581.147 612.24 582.798 611.487L583.429 611.786C584.45 615.708 585.794 625.851 583.558 629.471C583.297 629.892 582.631 629.762 581.871 629.83C579.939 628.047 579.86 628.108 579.848 625.447C577.451 623.443 575.059 625.565 573.996 623.29L574.718 621.889C576.206 618.869 577.213 617.757 579.312 615.132Z"/><path fill="#AFAFAF" d="M579.312 615.132C580.317 616.645 580.685 616.98 580.93 618.809L580.487 619.215L579.44 617.668C576.948 618.826 577.396 620.53 574.718 621.889C576.206 618.869 577.213 617.757 579.312 615.132Z"/><path fill="#818181" d="M534.65 611.476C547.597 611.234 540.571 619.757 536.089 625.142C538.769 624.708 540.497 624.136 542.959 625.333L543.288 626.363C542.323 627.693 542.317 627.601 540.898 628.485L530.943 628.495C533.355 625.657 538.379 620.48 537.295 616.579C536.303 615.232 535.471 615.135 533.871 614.556L533.247 614.335L533.111 613.474L534.65 611.476Z"/><path fill="#818181" d="M562.752 611.418C565.507 611.372 566.742 611.22 569 612.711C571.747 617.226 566.59 622.119 563.742 625.483C566.469 624.976 569.052 623.468 571.004 625.828L570.719 627.117C569.387 628.613 570.2 628.129 568.125 628.503L558.987 628.491C561.089 625.792 566.813 619.642 565.516 616.031C564.365 614.853 563.185 614.903 561.507 614.641L560.746 614.527C560.828 613.044 561.492 612.849 562.752 611.418Z"/><path fill="#818181" d="M520.734 620.019C523.086 619.914 525.474 619.537 527.549 620.444C528.676 621.958 528.319 621.1 528.382 623.202C526.207 623.409 524.483 623.785 522.431 623.139C520.845 621.722 521.345 622.334 520.734 620.019Z"/><path d="M824.353 580.244C837.004 580.13 849.59 580.589 862.277 580.45C855.575 581.962 845.587 582.692 838.536 583.379L800.809 586.946C779.505 589.008 758.189 590.941 736.863 592.748C715.864 594.873 694.832 596.65 673.775 598.076C662.682 615.831 652.831 632.159 640.108 648.834C605.422 694.293 563.285 730.042 516.502 762.253C509.149 758.224 492.997 745.8 485.675 740.247C432.49 699.916 391.993 656.438 359.553 598.12C317.275 596.116 269.92 590.05 227.377 586.365C221.448 585.747 169.522 581.009 169.106 580.629C172.32 580.15 179.808 580.642 183.515 580.668C193.932 580.802 204.35 580.775 214.766 580.587C268 579.876 321.69 580.888 374.943 580.564C379.419 589.229 384.583 599.579 389.743 607.733C419.541 654.811 468.717 707.096 516.534 735.882C574.329 698.818 627.175 642.236 657.625 580.523C712.992 579.788 768.883 580.966 824.353 580.244Z"/><path fill="#424142" d="M359.845 270.7L365.508 270.397C365.292 277.874 365.45 285.716 365.496 293.223C339.851 296.451 324.701 299.22 300.514 306.697C301.697 323.533 302.58 339.678 304.294 356.508C306.457 376.814 309.293 397.043 312.797 417.161L138.586 417.495C136.786 417.195 132.757 417.461 130.785 417.52L131.144 417.094C135.334 415.834 138.383 416.612 142.394 415.887C148.924 414.707 155.357 414.547 161.92 413.788C204.281 409.073 246.681 404.712 289.115 400.707C287.459 392.125 285.969 379.367 284.896 370.582C281.651 343.304 279.502 315.906 278.456 288.455C306.164 278.507 330.758 273.437 359.845 270.7Z"/><path fill="#AFAFAF" d="M692.012 272.809C712.398 276.879 732.55 282.046 752.378 288.29C751.205 313.464 749.077 338.584 745.999 363.597C744.608 375.633 743.176 388.526 741.102 400.466C751.491 402.228 768.924 403.55 780.068 404.735L858.873 412.937C866.848 413.752 890.823 415.441 897.247 416.94L897.61 417.608C894.155 417.274 887.427 417.55 883.758 417.549C875.559 417.485 867.36 417.469 859.16 417.501L771.136 417.605L739.113 417.584C732.561 417.56 724.504 417.771 718.114 417.069C723.266 378.085 727.713 346.624 729.521 306.859C720.934 303.501 701.402 298.804 692.297 297.631C692.628 290.247 692.195 280.363 692.012 272.809Z"/><path fill="#818181" d="M579.372 447.708C583.897 447.79 592.404 447.29 595.76 449.861C596.791 450.651 597.439 451.009 598.701 451.329C599.127 450.217 599.253 449.731 599.578 448.589C601.574 446.987 625.562 447.941 629.651 448.107C627.665 456.806 624.694 466.837 622.35 475.55L610.607 519.957L597.75 519.987C595.124 519.961 583.942 520.676 581.324 519.506C580.997 519.36 581.691 517.813 580.547 516.739C575.657 517.196 571.033 519.516 566.067 520.317C557.831 521.644 548.141 518.771 547.299 509.198C547.161 507.627 547.336 503.587 547.854 502.111C553.359 486.45 553.564 467.438 563.349 453.791C566.862 448.934 574.213 448.185 579.372 447.708ZM581.459 504.801L584.061 504.773C585.798 502.436 596.023 461.988 595.535 459.816L593.897 459.626C591.992 459.836 591.076 459.655 589.631 460.628C587.915 465.113 577.746 501.758 578.78 504.155C579.982 504.55 580.214 504.63 581.459 504.801Z"/><path fill="#818181" d="M380.423 447.786C388.421 447.251 413.819 445.858 419.873 450.644C421.885 452.235 423.428 454.55 423.687 457.145C424.392 464.21 412.186 508.182 407.521 513.263C402.623 518.599 395.311 519.728 388.461 519.973C379.479 520.105 369.772 520.374 360.815 519.853C353.923 519.453 349.478 518.705 344.915 513.49C344.661 512.345 344.425 511.188 344.319 510.019C343.672 502.876 355.601 458.344 360.508 453.11C365.484 447.802 373.734 447.922 380.423 447.786ZM373.986 508.234C375.644 508.351 378.996 508.855 380.248 508.124L380.43 507.889C384.994 492.955 389.26 473.418 393.974 459.595C391.662 459.423 389.095 459.292 386.813 459.054C383.21 473.982 376.6 494.177 373.986 508.234Z"/><path fill="#818181" d="M436.088 448.118C445.909 447.654 456.127 448.04 466.019 447.925C474.173 448.067 482.153 447.417 490.263 448.517C504.628 450.465 499.091 464.344 496.271 473.983C491.842 489.119 488.213 504.769 483.69 519.964C473.729 519.982 463.769 519.935 453.808 519.826C457.004 506.807 460.344 493.824 463.83 480.88L469.619 459.517C467.375 459.41 465.132 459.453 462.884 459.464C457.975 479.633 451.413 499.952 446.721 519.986C436.745 519.907 426.451 519.699 416.501 519.917C417.342 516.263 418.527 511.983 419.64 508.41C425.745 488.802 429.784 467.557 436.088 448.118Z"/><path fill="#818181" d="M677.874 448.093L706.615 447.987C714.188 447.91 736.74 445.798 740.656 453.355C743.487 458.819 737.66 476.414 736.006 482.632L726.086 519.91L696.027 519.893C699.262 506.773 703.245 493.296 706.585 479.886C708.326 473.043 710.124 466.216 711.978 459.403C709.776 459.364 707.612 459.445 705.412 459.506C699.531 479.157 694.423 499.982 688.578 519.92C678.998 520.157 668.29 519.944 658.629 519.941C660.255 512.832 662.824 504.848 664.792 497.657C669.297 481.174 673.658 464.652 677.874 448.093Z"/><path fill="#818181" d="M186.034 431.262C201.679 430.917 217.081 431.412 232.714 431.462C231.04 436.535 229.903 441.818 228.681 447.024L195.692 447.018L190.079 467.46L216.296 467.518C215.003 472.537 213.806 477.797 212.594 482.847C203.795 483.071 194.743 482.763 185.802 482.928C184.289 489.626 181.852 497.437 180.134 504.444L187.442 504.428L212.834 504.449C211.759 509.652 210.479 514.811 208.997 519.914C198.543 519.965 157.655 521.994 150.909 516.599C149.017 515.087 147.643 512.651 147.494 510.22C146.995 502.077 160.217 455.307 163.755 445.873C164.711 443.323 165.801 440.552 167.646 438.514C172.5 433.152 179.109 431.606 186.034 431.262Z"/><path fill="#818181" d="M766.632 448.188C775.247 447.935 783.867 448.069 792.484 448.062C797.726 448.057 803.48 447.415 808.616 448.482C811.253 449.03 814.183 450.019 815.58 452.491C819.824 460.001 810.081 488.327 807.722 497.02C797.656 496.955 787.59 496.951 777.524 497.008C781.203 485.55 784.505 471.341 787.361 459.544L780.827 459.513L772.36 491.126C771.074 495.492 769.91 499.893 768.868 504.324C781.059 504.456 793.25 504.506 805.441 504.473C803.834 509.852 802.654 514.089 801.609 519.59C790.815 519.728 749.27 522.03 742.214 517.238C739.816 515.609 738.652 512.492 738.319 509.727C737.379 501.927 748.861 460.153 753.749 454.111C757.016 450.072 761.713 448.82 766.632 448.188Z"/><path fill="#818181" d="M312.108 431.23C327.877 430.875 343.327 431.501 359.073 431.444C357.454 435.728 355.984 442.305 354.675 446.986C343.556 446.687 331.007 446.98 319.779 446.994C314.794 462.178 307.232 488.805 303.925 504.408C312.702 504.36 331.133 503.781 339.274 504.625C338.346 509.165 336.381 515.376 335.076 519.958C323.982 519.99 281.783 521.802 274.971 516.654C272.82 515.029 271.892 512.337 271.625 509.743C271.439 507.941 271.537 506.204 271.871 504.426C273.351 496.551 276.102 488.677 278.161 480.912C281.123 469.742 283.58 458.116 287.395 447.209C288.345 444.493 289.718 440.624 291.609 438.459C297.026 432.256 304.461 431.571 312.108 431.23Z"/><path fill="#818181" d="M516.562 431.458C526.597 431.577 536.633 431.581 546.668 431.47C545.308 437.011 543.883 442.537 542.394 448.045C545.915 447.954 550.417 447.349 553.322 449.091C554.5 451.649 551.324 459.69 550.293 463.484L538.47 463.294C535.553 476.668 530.907 490.578 527.913 504.184C531.383 504.179 535.298 503.367 538.082 505.08C538.7 506.775 538.328 506.751 537.826 508.886L535.144 519.966C514.523 519.189 489.035 527.028 499.07 495.206C505.607 474.477 510.481 452.328 516.562 431.458Z"/><path fill="#818181" d="M239.182 431.473C249.172 431.563 259.163 431.585 269.153 431.541C264.625 451.06 258.696 470.595 253.716 490.021C251.172 499.944 248.311 510.125 245.394 519.949L215.054 519.957C223.836 490.984 229.868 461.319 239.182 431.473Z"/><path fill="#818181" d="M842.41 448.196C849.642 447.408 875.379 447.974 883.34 448.276C882.46 452.304 881.601 456.337 880.765 460.374C874.174 459.669 863.881 460.696 856.531 460.175C853.38 476.219 847.458 494.686 843.491 510.902L840.979 519.886C834.569 519.205 817.571 519.567 810.795 519.888C814.113 506.046 823.504 462.424 831.089 452.99C833.898 449.495 838.208 448.729 842.41 448.196Z"/><path fill="#818181" d="M638.66 448.032C648.417 447.745 659.023 447.999 668.84 448.048C665.763 461.878 661.085 477.519 657.338 491.272C655.192 499.149 651.953 512.156 649.425 519.619C640.276 519.345 628.658 519.91 619.172 519.926C625.931 497.539 632.707 470.812 638.66 448.032Z"/><path fill="#818181" d="M722.17 541.606C727.983 541.421 751 540.191 753.733 544.135C753.689 548.849 750.3 561.361 747.11 565.167C741.789 566.307 722.155 565.995 715.665 565.991C717.477 558.292 719.85 549.147 722.17 541.606ZM728.557 562.743L737.343 562.83C738.506 558.286 741.134 549.283 741.882 545.063L734.125 544.942L728.557 562.743Z"/><path fill="#818181" d="M787.984 541.591C792.386 541.319 812.255 540.791 815.644 542.638C818.182 546.971 813.565 562.678 809.275 565.691C803.85 566.284 785.465 567.115 781.137 564.613C778.435 560.802 783.815 544.733 787.984 541.591ZM792.108 562.41L800.3 562.542C801.869 556.848 803.697 550.712 804.898 544.969L797.412 544.995C795.054 550.752 793.255 556.271 792.108 562.41Z"/><path fill="#818181" d="M416.382 541.658C423.853 541.667 432.582 541.014 439.85 542.039C446.426 542.967 439.985 558.291 438.406 561.814C437.327 564.222 436.512 564.78 434.113 565.525C428.986 565.743 423.347 565.783 418.26 565.912C408.938 566.331 404.612 565.555 407.8 554.917C409.361 549.709 410.377 542.972 416.382 541.658ZM417.797 562.527C420.657 562.634 423.279 562.781 426.146 562.565C428.116 557.71 430.146 550.082 431.456 544.972L423.236 544.947C421.228 550.745 419.414 556.608 417.797 562.527Z"/><path fill="#818181" d="M662.563 541.702C691.672 541.528 693.807 535.642 685.19 566.061C682.022 566.063 675.101 566.849 673.057 565.227L673.131 563.361L674.799 558.131L666.831 558.07C666.508 560.7 665.837 563.684 665.32 566.312C661.068 566.085 656.242 566.11 651.941 566.033C653.211 560.048 655.763 549.873 658.537 544.357C659.431 542.579 660.804 542.144 662.563 541.702ZM667.525 555.003C669.366 555.132 674.275 555.608 675.814 555.349C676.619 551.882 677.415 548.12 678.308 544.702L670.969 544.721C669.232 548.609 668.65 550.842 667.525 555.003Z"/><path fill="#818181" d="M537.805 541.672C565.13 541.497 569.111 536.657 559.201 565.515C556.625 565.736 549.712 566.413 547.634 565.122L547.701 563.884C547.934 561.99 548.341 560.234 548.736 558.374L541.013 558.252C540.505 560.856 539.829 563.386 539.177 565.957C535.132 565.861 530.647 565.977 526.565 565.993C528.197 559.59 530.18 550.379 533.15 544.549C534.213 542.463 535.736 542.1 537.805 541.672ZM541.47 555.254L548.953 555.473C550.726 553.956 551.617 547.568 552.124 544.994L544.859 544.98C543.745 548.304 542.455 551.92 541.47 555.254Z"/><path fill="#818181" d="M243.862 541.274C257.22 541.263 256.376 545.18 253.038 556.771C252.213 559.633 251.402 562.852 250.641 565.748C247.142 565.984 242.25 565.826 238.651 565.815L239.988 558.442C237.478 558.418 234.867 558.219 232.353 558.073C231.746 560.625 230.959 563.121 230.206 565.634C226.4 565.497 221.903 565.648 218.046 565.681C224.504 542.575 218.826 542.199 243.862 541.274ZM233.201 555.003C235.824 555.11 238.447 555.24 241.068 555.394C241.87 552.104 242.924 548.204 243.518 544.93C241.068 544.94 238.196 544.887 235.783 544.985C234.475 548.524 233.852 551.268 233.201 555.003Z"/><path fill="#818181" d="M308.178 541.614C312.424 541.543 315.784 541.573 320.018 541.809C319.213 545.672 318.293 549.274 317.306 553.097C316.874 555.113 315.065 563.376 313.712 564.057C308.308 566.773 287.524 567.785 283.396 563.84C282.142 559.311 286.191 546.971 287.553 541.989L299.608 541.853L299.832 541.936C300.173 543.399 295.509 559.769 294.73 562.729L302.672 562.621C304.628 555.651 306.464 548.647 308.178 541.614Z"/><path fill="#818181" d="M592.728 541.545C596.863 541.676 601.518 541.558 605.694 541.545C607.296 547.678 609.07 553.765 611.015 559.797C614.932 554.909 619.541 549.967 623.836 545.381C625.59 543.508 627.781 541.841 630.449 542.599C630.413 543.818 629.734 544.141 628.723 545.343C622.786 551.507 617.509 559.029 611.831 565.615L599.892 565.671C597.267 557.702 594.878 549.656 592.728 541.545Z"/><path fill="#818181" d="M355.419 541.715C360.895 541.131 373.455 541.529 379.369 541.788C380.415 541.834 380.226 541.859 380.859 542.763L380.55 543.95C378.067 544.845 374.51 544.61 371.756 544.629C370.074 549.952 368.49 556.287 367.003 561.75C366.771 562.587 366.209 564.79 365.602 565.169C362.926 566.837 357.234 566.028 354.029 566.017C355.55 559.197 357.513 551.902 359.211 545.081C355.265 545.081 354.226 545.291 350.657 543.479L350.517 542.714C352.138 541.641 353.45 541.807 355.419 541.715Z"/><path fill="#818181" d="M475.793 541.583L487.932 541.597C486.197 548.563 484.263 555.605 482.423 562.554C486.049 562.588 492.982 562.049 495.713 563.88C496.075 565.36 496.159 564.663 495.393 566.031L469.111 566.043C471.448 558.938 473.658 549.164 475.793 541.583Z"/><path fill="#818181" d="M642.956 431.558C652.336 431.708 663.758 431.995 673.004 431.5C672.091 435.275 671.209 438.83 670.14 442.561C661.402 442.977 648.356 441.911 640.33 442.962C641.275 439.208 641.997 435.363 642.956 431.558Z"/></svg>